<svg width="70" height="70" viewBox="0 0 70 70" fill="none" xmlns="http://www.w3.org/2000/svg">
<rect width="70" height="70" rx="15" fill="#CF51CE"/>
<path d="M14.2 51.6H35.8V54C35.8 55.325 36.875 56.4 38.2 56.4H41.4C42.1 56.4 42.7625 56.0875 43.2125 55.5625C43.225 55.5625 43.2375 55.5625 43.25 55.55C43.8375 56.1 44.6 56.4 45.4 56.4H55C56.325 56.4 57.4 55.325 57.4 54C57.4 53.5875 57.2875 53.175 57.075 52.825C58.1625 52.15 58.525 50.7375 57.875 49.625C58.475 49.25 58.875 48.625 58.975 47.925C59.075 47.225 58.85 46.5125 58.375 46C59.0125 45.3 59.175 44.2875 58.7875 43.425C58.4 42.5625 57.5375 42 56.5875 42H54.1875V17.2C54.1875 15.4375 52.75 14 50.9875 14H14.2C12.4375 14 11 15.4375 11 17.2V48.4C11 50.1625 12.4375 51.6 14.2 51.6ZM41.4 54.8H38.2C37.7625 54.8 37.4 54.4375 37.4 54V46.8C37.4 46.3625 37.7625 46 38.2 46H41.4C41.8375 46 42.2 46.3625 42.2 46.8V54C42.2 54.4375 41.8375 54.8 41.4 54.8ZM57.4 44.4C57.4 44.8375 57.0375 45.2 56.6 45.2H54.2C53.7625 45.2 53.4 45.5625 53.4 46C53.4 46.4375 53.7625 46.8 54.2 46.8H56.6C57.0375 46.8 57.4 47.1625 57.4 47.6C57.4 48.0375 57.0375 48.4 56.6 48.4H54.2C53.7625 48.4 53.4 48.7625 53.4 49.2C53.4 49.6375 53.7625 50 54.2 50H55.8C56.2375 50 56.6 50.3625 56.6 50.8C56.6 51.2375 56.2375 51.6 55.8 51.6H54.2C53.7625 51.6 53.4 51.9625 53.4 52.4C53.4 52.8375 53.7625 53.2 54.2 53.2H55C55.4375 53.2 55.8 53.5625 55.8 54C55.8 54.4375 55.4375 54.8 55 54.8H45.4C44.5125 54.8 43.8 54.0875 43.8 53.2V46.4625C44.8 45.8375 45.55 44.875 45.925 43.7625C46.6375 41.625 47 39.3875 47 37.1375C47 37.025 47.075 36.9375 47.175 36.9C47.45 36.85 48.1625 36.725 48.8375 38.05C49.2125 38.8125 49.4 39.65 49.3875 40.5125V42.8C49.3875 43.2375 49.75 43.6 50.1875 43.6H56.5875C57.0375 43.6 57.4 43.9625 57.4 44.4ZM51 42V40.5125C51.0125 39.4125 50.7625 38.3125 50.275 37.325C49.4875 35.7875 48.2875 35.075 46.9 35.325C46.025 35.4875 45.4 36.25 45.4 37.1375C45.4 39.2125 45.0625 41.2875 44.4125 43.2625C44.1625 44 43.675 44.625 43.025 45.0625C42.5875 44.65 42 44.425 41.4 44.4125H38.2C36.875 44.4125 35.8 45.4875 35.8 46.8125V50.0125H14.2C13.3125 50.0125 12.6 49.3 12.6 48.4125V22H52.6V42H51ZM14.2 15.6H51C51.8875 15.6 52.6 16.3125 52.6 17.2V20.4H12.6V17.2C12.6 16.3125 13.3125 15.6 14.2 15.6Z" fill="white"/>
<path fill-rule="evenodd" clip-rule="evenodd" d="M15.7992 17.999C15.7992 18.4365 15.4367 18.799 14.9992 18.799C14.5617 18.799 14.1992 18.4365 14.1992 17.999C14.1992 17.5615 14.5617 17.199 14.9992 17.199C15.4367 17.199 15.7992 17.5615 15.7992 17.999Z" fill="white"/>
<path fill-rule="evenodd" clip-rule="evenodd" d="M19.0005 17.999C19.0005 18.4365 18.638 18.799 18.2005 18.799C17.763 18.799 17.4005 18.4365 17.4005 17.999C17.4005 17.5615 17.763 17.199 18.2005 17.199C18.638 17.199 19.0005 17.5615 19.0005 17.999Z" fill="white"/>
<path fill-rule="evenodd" clip-rule="evenodd" d="M22.1995 17.999C22.1995 18.4365 21.837 18.799 21.3995 18.799C20.962 18.799 20.5995 18.4365 20.5995 17.999C20.5995 17.5615 20.962 17.199 21.3995 17.199C21.837 17.199 22.1995 17.5615 22.1995 17.999Z" fill="white"/>
<path d="M17.4 38.8005H30.2C31.525 38.8005 32.6 37.7255 32.6 36.4005V26.8005C32.6 25.4755 31.525 24.4005 30.2 24.4005H17.4C16.075 24.4005 15 25.4755 15 26.8005V36.4005C15 37.7255 16.075 38.8005 17.4 38.8005ZM19.3625 37.2005L23.0625 31.3755L24.8375 33.6005L22.5625 37.2005H19.3625ZM30.2 37.2005H24.4625L28.675 30.5755L31 33.488V36.413C31 36.838 30.6375 37.2005 30.2 37.2005ZM16.6 26.8005C16.6 26.363 16.9625 26.0005 17.4 26.0005H30.2C30.6375 26.0005 31 26.363 31 26.8005V30.9255L29.225 28.7005C29.0625 28.5005 28.8125 28.388 28.5625 28.4005C28.3 28.413 28.075 28.5505 27.925 28.7755L25.7625 32.1755L23.625 29.5005C23.4625 29.3005 23.2125 29.188 22.9625 29.2005C22.7 29.213 22.475 29.3505 22.325 29.5755L17.475 37.2005H17.4C16.9625 37.2005 16.6 36.838 16.6 36.4005V26.8005V26.8005Z" fill="white"/>
<path fill-rule="evenodd" clip-rule="evenodd" d="M19.7992 28.3995C19.7992 28.837 19.4367 29.1995 18.9992 29.1995C18.5617 29.1995 18.1992 28.837 18.1992 28.3995C18.1992 27.962 18.5617 27.5995 18.9992 27.5995C19.4367 27.5995 19.7992 27.962 19.7992 28.3995Z" fill="white"/>
<path fill-rule="evenodd" clip-rule="evenodd" d="M49.4 25.199H35.8C35.3625 25.199 35 25.5615 35 25.999C35 26.4365 35.3625 26.799 35.8 26.799H49.4C49.8375 26.799 50.2 26.4365 50.2 25.999C50.2 25.5615 49.8375 25.199 49.4 25.199Z" fill="white"/>
<path fill-rule="evenodd" clip-rule="evenodd" d="M49.4 28.4005H35.8C35.3625 28.4005 35 28.763 35 29.2005C35 29.638 35.3625 30.0005 35.8 30.0005H49.4C49.8375 30.0005 50.2 29.638 50.2 29.2005C50.2 28.763 49.8375 28.4005 49.4 28.4005Z" fill="white"/>
<path fill-rule="evenodd" clip-rule="evenodd" d="M49.4 31.5995H35.8C35.3625 31.5995 35 31.962 35 32.3995C35 32.837 35.3625 33.1995 35.8 33.1995H49.4C49.8375 33.1995 50.2 32.837 50.2 32.3995C50.2 31.962 49.8375 31.5995 49.4 31.5995Z" fill="white"/>
<path fill-rule="evenodd" clip-rule="evenodd" d="M43 34.801H35.8C35.3625 34.801 35 35.1635 35 35.601C35 36.0385 35.3625 36.401 35.8 36.401H43C43.4375 36.401 43.8 36.0385 43.8 35.601C43.8 35.1635 43.4375 34.801 43 34.801Z" fill="white"/>
<path fill-rule="evenodd" clip-rule="evenodd" d="M34.2 42H15.8C15.3625 42 15 42.3625 15 42.8C15 43.2375 15.3625 43.6 15.8 43.6H34.2C34.6375 43.6 35 43.2375 35 42.8C35 42.3625 34.6375 42 34.2 42Z" fill="white"/>
<path fill-rule="evenodd" clip-rule="evenodd" d="M31.8 45.199H15.8C15.3625 45.199 15 45.5615 15 45.999C15 46.4365 15.3625 46.799 15.8 46.799H31.8C32.2375 46.799 32.6 46.4365 32.6 45.999C32.6 45.5615 32.2375 45.199 31.8 45.199Z" fill="white"/>
</svg>
