<svg width="70" height="70" viewBox="0 0 70 70" fill="none" xmlns="http://www.w3.org/2000/svg">
<rect width="70" height="70" rx="15" fill="#CF51CE"/>
<path d="M34.4629 58.9315C33.5727 58.7261 32.751 58.4522 32.2032 57.699C31.8609 57.2197 31.587 56.6034 31.3131 56.0556C31.1761 55.7817 31.1077 55.6448 30.8338 55.5763C29.0535 55.234 27.2731 54.6177 25.6298 53.796C23.0278 52.495 20.7681 50.7147 18.9194 48.4551C18.7139 48.1812 18.5085 48.1812 18.2346 48.2496C16.5228 48.8659 14.674 48.1127 13.7838 46.5378C12.8937 44.8944 13.2361 42.9087 14.7425 41.8131C15.0164 41.6077 15.0848 41.4023 14.9479 41.0599C13.7154 37.02 13.7154 32.9116 14.9479 28.8716C15.0164 28.5977 15.0164 28.3923 14.7425 28.1869C13.2361 27.0913 12.8252 25.1056 13.7154 23.4622C14.6055 21.8188 16.4543 21.1341 18.2346 21.7504C18.577 21.8873 18.7139 21.7504 18.9194 21.5449C20.7681 19.2853 23.0278 17.505 25.6298 16.204C27.2047 15.3823 28.9165 14.8345 30.6283 14.4922C31.0392 14.4237 31.3131 14.2867 31.45 13.7389C31.7239 12.0956 33.2988 11 35.0107 11C36.7225 11 38.2289 12.2325 38.5713 13.8759C38.6398 14.2867 38.8452 14.4237 39.1876 14.4922C41.995 15.0399 44.5285 16.1355 46.8566 17.7789C48.4315 18.8745 49.801 20.107 50.965 21.5449C51.1704 21.8188 51.3759 21.8873 51.7182 21.7504C53.3616 21.1341 55.2788 21.8873 56.169 23.3937C57.0592 25.0371 56.7168 27.0228 55.2789 28.1184C55.005 28.3238 54.9365 28.5292 55.005 28.8716C56.2375 32.9116 56.2375 37.02 55.005 41.0599C54.9365 41.3338 54.9365 41.5392 55.2104 41.7447C56.5798 42.7718 57.0592 44.689 56.3744 46.2639C55.6212 47.9073 53.8409 48.8659 52.1975 48.3866C51.4443 48.1812 51.102 48.3866 50.6226 48.9344C47.6098 52.3581 43.7753 54.5492 39.3245 55.5078C38.9137 55.5763 38.6398 55.7817 38.5713 56.2611C38.1604 57.699 37.2018 58.5207 35.8323 58.9315C35.6954 58.9315 35.6269 59 35.49 59C35.0791 58.9315 34.8052 58.9315 34.4629 58.9315ZM34.9422 24.4893C29.1904 24.4893 24.4657 29.214 24.4657 34.9658C24.4657 40.7175 29.1904 45.4422 34.9422 45.4422C40.694 45.4422 45.4186 40.7175 45.4186 34.9658C45.4186 29.214 40.694 24.4893 34.9422 24.4893ZM31.3816 15.8616C26.6569 16.7518 22.8224 19.0799 19.8095 22.7775C20.6312 23.8046 20.9051 24.9001 20.6312 26.1327C20.6312 26.2696 20.7681 26.4066 20.8366 26.475C21.7268 26.9544 22.6169 27.4337 23.5071 27.913C23.9179 28.1184 24.3288 28.3923 24.7396 28.5977C27.2047 24.9686 30.5599 22.9829 34.9422 22.9829C39.3245 22.9829 42.6112 25.0371 45.0763 28.5977C46.2403 27.9815 47.3359 27.3652 48.4315 26.7489C48.9793 26.475 49.3216 26.2011 49.1847 25.4479C48.9793 24.4208 49.3901 23.5307 50.0749 22.709C47.062 19.0114 43.2275 16.6833 38.5028 15.7932C38.0235 17.2311 37.0649 18.0528 35.6269 18.3952C35.6269 19.4223 35.6269 20.4494 35.6269 21.408C35.1476 21.408 34.6683 21.408 34.1205 21.408C34.1205 20.3809 34.1205 19.3538 34.1205 18.3952C32.8195 18.0528 31.8609 17.2311 31.3816 15.8616ZM19.8095 47.1541C22.8908 50.8516 26.6569 53.1797 31.3816 54.0699C31.8609 52.7004 32.8195 51.8103 34.2575 51.4679C34.2575 50.4408 34.2575 49.4137 34.2575 48.4551C34.8052 48.4551 35.2161 48.4551 35.7639 48.4551C35.7639 49.4822 35.7639 50.5093 35.7639 51.4679C37.2018 51.8103 38.092 52.7004 38.5713 54.0699C43.296 53.1113 47.1305 50.8516 50.1433 47.1541C49.2532 45.7846 49.1847 45.3738 49.3216 43.7989C49.3216 43.6619 49.2532 43.525 49.1847 43.4565C47.8837 42.7033 46.5142 42.0185 45.1448 41.2653C42.6797 44.8944 39.3245 46.8802 34.9422 46.8802C30.5599 46.8802 27.2047 44.826 24.7396 41.2653C23.3701 42.0185 22.0691 42.7033 20.7681 43.4565C20.6997 43.525 20.5627 43.6619 20.6312 43.7989C20.9051 45.0999 20.5627 46.1954 19.8095 47.1541ZM24.0549 39.9643C22.6169 36.6091 22.6169 33.2539 24.0549 29.8987C22.6169 29.1455 21.2475 28.3238 19.8095 27.5706C18.8509 28.5977 17.7553 29.0086 16.3858 28.8716C15.1533 32.9116 15.1533 36.883 16.3858 40.923C17.7553 40.786 18.8509 41.2653 19.8095 42.224C21.2475 41.5392 22.6169 40.786 24.0549 39.9643ZM50.0749 42.2924C50.965 41.4023 51.9921 40.8545 53.2931 40.923C53.3616 40.923 53.567 40.7175 53.6355 40.6491C54.3202 38.4579 54.5941 36.2668 54.4572 33.9387C54.3887 32.2268 54.1148 30.5835 53.4985 28.9401C52.1975 29.077 51.102 28.6662 50.2118 27.776C50.1433 27.7076 49.9379 27.7076 49.801 27.776C49.1847 28.1184 48.5684 28.4608 48.0206 28.7347C47.3359 29.1455 46.5827 29.4879 45.898 29.8987C47.3359 33.2539 47.3359 36.6091 45.898 39.9643C47.2674 40.786 48.6369 41.5392 50.0749 42.2924ZM34.9422 16.9572C36.1747 16.9572 37.2018 15.9301 37.2018 14.766C37.2018 13.5335 36.2432 12.5064 35.0107 12.5064C33.7781 12.5064 32.751 13.5335 32.751 14.766C32.6826 15.9301 33.7097 16.9572 34.9422 16.9572ZM19.1933 25.2425C19.1933 24.01 18.1662 22.9829 16.9336 22.9829C15.7011 22.9829 14.674 24.01 14.674 25.2425C14.674 26.475 15.7011 27.4337 16.9336 27.4337C18.2346 27.4337 19.1933 26.4066 19.1933 25.2425ZM55.1419 25.2425C55.1419 24.01 54.1148 22.9829 52.9507 22.9829C51.7182 22.9829 50.6911 23.9415 50.6911 25.174C50.6911 26.4066 51.7182 27.4337 52.9507 27.4337C54.1148 27.5021 55.1419 26.475 55.1419 25.2425ZM19.1933 44.689C19.1933 43.4565 18.1662 42.4294 16.9336 42.4294C15.7011 42.4294 14.674 43.4565 14.674 44.689C14.674 45.9215 15.7011 46.9486 16.9336 46.9486C18.2346 46.9486 19.1933 45.9215 19.1933 44.689ZM55.1419 44.689C55.1419 43.4565 54.1148 42.4294 52.9507 42.4294C51.7182 42.4294 50.6911 43.388 50.6911 44.6205C50.6911 45.8531 51.7182 46.8802 52.9507 46.8802C54.1148 46.9486 55.1419 45.9215 55.1419 44.689ZM34.9422 52.9743C33.7097 52.9743 32.6826 54.0014 32.6826 55.1655C32.6826 56.398 33.7097 57.4251 34.9422 57.4251C36.1747 57.4251 37.2018 56.398 37.2018 55.1655C37.2018 53.933 36.1747 52.9743 34.9422 52.9743Z" fill="white"/>
<path d="M32.545 34.0748C31.1071 32.7738 30.9017 31.1989 31.3125 29.487C31.7233 27.7067 33.5037 26.5427 35.2155 26.6796C37.2012 26.885 38.5022 28.3915 38.6392 30.3772C38.7077 31.7467 38.4338 32.9792 37.2697 34.0063C37.4751 34.1432 37.6806 34.3487 37.886 34.4856C38.9816 35.1703 40.1456 35.8551 41.2412 36.4713C41.5151 36.6083 41.652 36.8137 41.5835 37.1561C41.5835 37.8408 41.5835 38.5255 41.5835 39.1418C41.652 40.032 41.1727 40.6482 40.4195 40.9221C39.6663 41.196 38.8446 41.4014 38.0914 41.4699C35.6263 41.6753 33.0928 41.7438 30.6278 41.333C30.2169 41.2645 29.8061 41.1275 29.3952 40.9906C28.5736 40.6482 28.0942 40.032 28.1627 39.1418C28.1627 38.4571 28.1627 37.7723 28.1627 37.0876C28.1627 36.8137 28.2312 36.6768 28.4366 36.5398C29.6007 35.8551 30.6962 35.1703 31.8603 34.4856C32.1342 34.4171 32.3396 34.2802 32.545 34.0748ZM34.5308 40.2374C35.9002 40.1689 36.8589 40.1689 37.8175 40.1004C38.4338 40.032 39.1185 39.895 39.7348 39.7581C40.0771 39.6896 40.1456 39.4842 40.1456 39.1418C40.351 38.0462 39.9402 37.293 38.8446 36.8822C38.7077 36.8137 38.5707 36.7452 38.5022 36.6768C37.6806 36.129 36.8589 35.5127 36.0372 34.9649C35.9687 34.8964 35.7633 34.8964 35.6263 34.8964C35.0786 34.8964 34.5992 34.8964 34.0515 34.8964C33.9145 34.8964 33.7091 34.8964 33.6406 34.9649C32.7505 35.9236 31.5864 36.4713 30.4908 37.0876C29.8061 37.4984 29.4637 37.9093 29.6007 38.731C29.6691 39.6896 29.6691 39.6896 30.5593 39.9635C30.6278 39.9635 30.6278 39.9635 30.6962 39.9635C32.2027 40.032 33.5721 40.1689 34.5308 40.2374ZM32.682 30.788C32.682 30.9935 32.682 31.1989 32.682 31.4043C32.7505 32.5683 33.7091 33.39 34.8047 33.4585C35.9002 33.527 36.9273 32.7738 37.0643 31.6782C37.1328 31.0619 37.1328 30.4457 36.9958 29.8979C36.6534 28.5284 35.0101 27.8437 33.7776 28.5284C33.0243 29.0077 32.682 29.8294 32.682 30.788Z" fill="white"/>
<path d="M35.6958 15.4497C35.2164 15.4497 34.7371 15.4497 34.2578 15.4497C34.2578 14.9703 34.2578 14.491 34.2578 14.0117C34.7371 14.0117 35.2164 14.0117 35.6958 14.0117C35.6958 14.491 35.6958 14.9703 35.6958 15.4497Z" fill="white"/>
<path d="M17.686 25.9267C17.2067 25.9267 16.7274 25.9267 16.248 25.9267C16.248 25.4474 16.248 24.9681 16.248 24.4888C16.7274 24.4888 17.2067 24.4888 17.686 24.4888C17.686 24.9681 17.686 25.4474 17.686 25.9267Z" fill="white"/>
<path d="M53.6352 24.4888C53.6352 24.9681 53.6352 25.4474 53.6352 25.9267C53.1559 25.9267 52.6766 25.9267 52.1973 25.9267C52.1973 25.4474 52.1973 24.9681 52.1973 24.4888C52.6766 24.4888 53.1559 24.4888 53.6352 24.4888Z" fill="white"/>
<path d="M17.686 45.4417C17.2067 45.4417 16.7274 45.4417 16.248 45.4417C16.248 44.9624 16.248 44.4831 16.248 44.0038C16.7274 44.0038 17.2067 44.0038 17.686 44.0038C17.686 44.4831 17.686 44.9624 17.686 45.4417Z" fill="white"/>
<path d="M53.6352 44.0038C53.6352 44.4831 53.6352 44.9624 53.6352 45.4417C53.1559 45.4417 52.6766 45.4417 52.1973 45.4417C52.1973 44.9624 52.1973 44.4831 52.1973 44.0038C52.6766 44.0038 53.1559 44.0038 53.6352 44.0038Z" fill="white"/>
<path d="M35.6958 54.4807C35.6958 54.96 35.6958 55.4393 35.6958 55.9187C35.2164 55.9187 34.7371 55.9187 34.2578 55.9187C34.2578 55.4393 34.2578 54.96 34.2578 54.4807C34.7371 54.4807 35.148 54.4807 35.6958 54.4807Z" fill="white"/>
</svg>
