<svg width="70" height="70" viewBox="0 0 70 70" fill="none" xmlns="http://www.w3.org/2000/svg">
<rect width="70" height="70" rx="15" fill="#CF51CE"/>
<path d="M24.3441 58.1533C23.474 57.7666 23.0873 57.1866 23.184 56.2199C23.184 55.7365 23.184 55.1564 23.184 54.6731C22.9906 54.6731 22.7973 54.6731 22.604 54.6731C20.2838 54.6731 18.0603 54.6731 15.7401 54.6731C14.58 54.6731 14 54.093 14 52.933C14 52.4496 14 51.9662 14 51.4828C14 50.9995 14.29 50.7095 14.6767 50.7095C15.0634 50.7095 15.3534 50.9995 15.3534 51.4828C15.3534 51.9662 15.3534 52.4496 15.3534 52.933C15.3534 53.1263 15.4501 53.223 15.6435 53.223C18.157 53.223 20.5738 53.223 23.184 53.223C23.184 51.6762 23.184 50.2261 23.184 48.776C21.3472 47.6159 20.7672 46.8425 20.4771 44.7157C19.317 44.7157 18.157 44.619 17.0936 44.7157C16.1268 44.8124 15.4501 45.8758 15.3534 46.9392C15.3534 47.4226 15.3534 47.8093 15.3534 48.2926C15.3534 48.776 15.0634 49.066 14.6767 49.066C14.29 49.066 14 48.776 14 48.2926C14 47.8093 14 47.2292 14 46.7458C14.0967 45.5858 14.6767 44.619 15.6435 43.9423C15.7401 43.8456 15.8368 43.8456 15.9335 43.749C15.5468 42.4922 15.0634 41.3321 14.7734 40.172C13.2266 33.9849 14.1933 28.2812 17.7703 22.9641C17.9636 22.6741 18.0603 22.4808 17.8669 22.0941C17.3836 21.1273 17.5769 19.9673 18.3503 19.1939C19.1237 18.4205 20.1871 18.1305 21.2505 18.6138C21.4439 18.8072 21.6372 18.7105 21.8306 18.5172C22.9906 17.7438 24.0541 16.9704 25.2141 16.197C25.6975 15.907 26.0842 16.0036 26.2775 16.3903C26.4709 16.777 26.2775 17.067 25.8909 17.3571C24.8274 18.1305 23.764 18.8072 22.7006 19.5806C22.5073 19.6772 22.5073 19.8706 22.604 20.0639C22.9906 21.0307 22.7973 21.9974 22.1206 22.6741C21.4439 23.4475 20.5738 23.7375 19.5104 23.4475C19.2204 23.3508 19.1237 23.4475 18.9304 23.6409C16.9969 26.4444 15.8368 29.5379 15.5468 33.0182C15.1601 36.4984 15.7401 39.7853 17.0936 42.9756C17.1902 43.2656 17.3836 43.3623 17.7703 43.3623C19.1237 43.3623 20.4771 43.3623 21.7339 43.3623C21.8306 42.9756 21.7339 42.7822 21.5405 42.5889C20.3805 41.6221 19.6071 40.4621 19.4137 39.012C19.4137 38.7219 19.317 38.6253 19.027 38.5286C17.2869 38.0452 16.7069 35.9184 17.9636 34.565C18.0603 34.4683 18.157 34.1783 18.157 33.9849C18.157 32.5348 18.157 31.1814 18.157 29.7313C18.157 27.6045 19.5104 26.0577 21.4439 25.671C21.7339 25.5743 22.1206 25.5743 22.4106 25.5743C23.8607 25.5743 25.3108 25.5743 26.7609 25.5743C27.7277 25.5743 28.6944 25.8643 29.4678 26.5411C29.5644 26.6377 29.7578 26.6377 29.8545 26.6377C30.7245 26.251 31.5946 26.1544 32.5613 26.1544C33.0447 26.1544 33.4314 26.1544 33.9148 26.1544C34.3015 26.1544 34.5915 26.4444 34.6882 26.8311C34.6882 27.2178 34.3981 27.5078 33.9148 27.5078C33.238 27.5078 32.5613 27.5078 31.8846 27.5078C30.1445 27.5078 28.6944 28.8612 28.5977 30.6014C28.501 32.0515 28.5977 33.5016 28.5977 34.9517C28.5977 35.0483 28.5977 35.0483 28.5977 35.145C28.9844 35.2417 28.9844 35.0483 29.0811 34.7583C29.2744 33.6949 29.6611 32.7282 30.2412 31.8581C30.6279 31.3747 30.8212 31.2781 31.4012 31.4714C33.238 32.0515 34.9782 32.5348 36.9116 32.7282C37.395 32.7282 37.9751 32.7282 38.4584 32.6315C38.7484 32.5348 39.1351 32.3415 39.3285 32.1481C39.7152 31.7614 40.1985 31.7614 40.4886 32.2448C40.9719 33.0182 41.3586 33.8883 41.4553 34.7583C41.4553 34.9517 41.552 35.2417 41.842 35.145C41.842 35.0483 41.842 34.9517 41.842 34.855C41.842 33.8883 41.842 32.9215 41.842 31.9548C41.842 31.4714 41.7453 31.1814 41.1653 31.1814C40.7786 31.0847 40.5852 30.7947 40.5852 30.408C40.5852 29.6346 40.2952 29.0546 39.8119 28.4745C39.2318 27.7978 38.4584 27.5078 37.685 27.5078C37.395 27.5078 37.105 27.5078 36.9116 27.5078C36.5249 27.5078 36.2349 27.2178 36.2349 26.8311C36.2349 26.4444 36.5249 26.1544 36.9116 26.1544C37.9751 26.0577 39.0385 26.251 39.9085 26.7344C40.8753 25.7677 42.0353 25.4777 43.2921 25.5743C44.7422 25.5743 46.0956 25.5743 47.5457 25.5743C49.3825 25.5743 50.8326 26.7344 51.316 28.4745C51.316 28.5712 51.4127 28.7646 51.606 28.8612C52.1861 29.2479 52.4761 29.828 52.4761 30.5047C52.4761 31.5681 52.4761 32.7282 52.4761 33.7916C52.4761 33.9849 52.5728 34.2749 52.7661 34.3716C54.0229 35.7251 53.4428 37.7552 51.7027 38.3352C51.4127 38.4319 51.4127 38.5286 51.316 38.7219C51.026 40.172 50.3493 41.4288 49.1892 42.3955C48.9958 42.4922 48.9958 42.7822 48.8025 42.9756L48.8992 43.0722C49.5759 43.0722 50.1559 43.0722 50.8326 43.0722C51.5094 43.0722 52.2827 43.0722 52.9595 43.0722C53.3462 43.0722 53.4428 42.9756 53.6362 42.6856C54.9896 39.4953 55.473 36.2084 55.183 32.8248C54.8929 29.4413 53.7329 26.3477 51.8961 23.5442C51.7027 23.2542 51.5094 23.1575 51.2193 23.2542C50.2526 23.5442 49.3825 23.2542 48.7058 22.4808C48.0291 21.7074 47.8358 20.8373 48.2225 19.8706C48.1258 19.8706 48.0291 19.6772 47.8358 19.4839C45.0322 17.2604 41.842 15.8103 38.2651 15.2302C37.8784 15.1336 37.685 15.2302 37.4917 15.6169C36.5249 17.3571 34.0114 17.2604 33.0447 15.6169C32.8514 15.3269 32.658 15.2302 32.368 15.3269C31.2079 15.6169 30.0478 15.907 28.8877 16.197C28.6944 16.2937 28.3077 16.2937 28.1143 16.197C27.921 16.1003 27.7277 15.8103 27.8243 15.6169C27.921 15.4236 28.1143 15.0369 28.3077 15.0369C29.4678 14.6502 30.5312 14.4569 31.6913 14.1668C31.7879 14.1668 31.7879 14.1668 31.8846 14.1668C32.4647 14.1668 32.7547 13.9735 32.948 13.3935C33.4314 12.2334 34.3015 11.75 35.4615 11.75C36.5249 11.8467 37.395 12.33 37.7817 13.3935C37.9751 13.7801 38.1684 13.8768 38.5551 13.9735C42.422 14.5535 45.8056 16.0036 48.8025 18.5172C49.0925 18.7105 49.2859 18.8072 49.6726 18.6138C50.6393 18.2271 51.7994 18.5172 52.4761 19.2905C53.1528 20.0639 53.3462 21.224 52.8628 22.1907C52.7661 22.3841 52.6694 22.5774 52.8628 22.8675C57.2131 29.3446 57.7931 36.2084 54.8929 43.4589C54.8929 43.5556 54.7963 43.6523 54.7963 43.749C54.9896 43.8456 55.0863 43.9423 55.2796 44.1357C56.2464 44.909 56.7297 45.8758 56.7297 47.1325C56.7297 49.066 56.7297 51.0962 56.7297 53.0296C56.7297 54.1897 56.1497 54.7698 54.9896 54.7698C52.6694 54.7698 50.4459 54.7698 48.1258 54.7698C47.9324 54.7698 47.7391 54.7698 47.5457 54.7698C47.5457 55.3498 47.5457 55.8332 47.5457 56.3165C47.6424 57.2833 47.2557 57.8633 46.3857 58.25C38.9418 58.1533 31.6913 58.1533 24.3441 58.1533ZM40.1985 47.1325C39.9085 50.2261 37.5884 51.8695 35.3649 51.8695C34.2048 51.8695 33.238 51.5795 32.368 50.8061C31.1112 49.8394 30.5312 48.5826 30.4345 47.0359C29.3711 47.0359 28.4044 47.0359 27.341 47.0359C25.6008 47.0359 24.5374 48.0993 24.5374 49.8394C24.5374 51.9662 24.5374 54.093 24.5374 56.2199C24.5374 56.6066 24.6341 56.7999 25.1175 56.7999C29.0811 56.7999 33.0447 56.7999 37.0083 56.7999C39.9085 56.7999 42.8087 56.7999 45.7089 56.7999C45.9023 56.7999 46.1923 56.8966 46.1923 56.5099C46.1923 54.1897 46.1923 51.9662 46.1923 49.6461C46.1923 48.3893 45.1289 47.2292 43.9688 47.2292C42.6154 47.0359 41.4553 47.1325 40.1985 47.1325ZM39.9085 33.8883C36.815 34.9517 34.1081 33.7916 31.3046 33.1149C31.2079 33.2115 31.1112 33.3082 31.1112 33.5016C30.6279 34.1783 30.4345 34.9517 30.4345 35.7251C30.4345 37.3685 30.3378 39.012 30.5312 40.5587C30.8212 43.0722 33.1414 44.909 35.6549 44.7157C38.1684 44.5223 40.1985 42.4922 40.1985 39.9787C40.1985 38.5286 40.1985 37.0785 40.1985 35.6284C40.1985 35.0483 40.0052 34.4683 39.9085 33.8883ZM21.0572 32.4382C20.9605 33.0182 20.7672 33.5016 20.6705 33.9849C20.5738 35.435 20.5738 36.9818 20.6705 38.4319C20.8638 41.0421 23.184 42.7822 25.6975 42.3955C26.9543 42.2022 28.0177 41.4288 28.6944 40.3654C28.5977 40.3654 28.501 40.2687 28.501 40.2687C26.8576 39.592 26.2775 38.0452 27.1476 36.4984C27.1476 36.4018 27.2443 36.4018 27.2443 36.3051C27.2443 35.3384 27.2443 34.4683 27.2443 33.5016C25.1175 33.5016 23.184 33.0182 21.0572 32.4382ZM55.183 53.3196C55.183 51.0962 55.183 48.9693 55.183 46.8425C55.183 45.8758 54.4096 44.909 53.4428 44.8124C52.2827 44.7157 51.2193 44.8124 50.0593 44.8124C49.7692 46.9392 49.1892 47.8093 47.3524 48.8727C47.3524 50.4194 47.3524 51.8695 47.3524 53.3196C50.0593 53.3196 52.5728 53.3196 55.183 53.3196ZM41.9387 40.2687C41.9387 40.3654 42.0353 40.4621 42.0353 40.4621C43.0021 41.9122 44.9356 42.6856 46.579 42.2989C48.4158 41.8155 49.7692 40.3654 49.8659 38.5286C49.9626 37.1752 49.9626 35.7251 49.8659 34.3716C49.8659 33.8883 49.6726 33.3082 49.6726 32.8248C47.4491 33.8883 45.4189 33.2115 43.2921 32.8248C43.2921 33.7916 43.2921 34.7583 43.2921 35.7251C43.2921 36.0151 43.3888 36.2084 43.4854 36.4018C44.1622 37.7552 43.6788 39.3987 42.2287 39.9787C42.132 40.172 42.0353 40.2687 41.9387 40.2687ZM41.0686 27.7011C41.3586 28.3779 41.6486 29.0546 41.9387 29.7313C42.0353 30.0213 42.132 30.118 42.3254 30.3113C42.6154 30.6014 42.9054 30.8914 43.1954 31.2781C43.2921 31.3747 43.4854 31.5681 43.5821 31.6648C44.2588 31.8581 44.8389 32.0515 45.5156 32.0515C46.4823 32.1481 47.3524 32.1481 48.3191 32.0515C48.6091 32.0515 48.8025 31.6648 48.9958 31.4714C49.1892 31.2781 49.3825 30.988 49.5759 30.988C49.7692 30.988 50.0593 31.1814 50.2526 31.3747C50.5426 31.7614 50.736 32.1481 50.9293 32.6315C50.9293 31.8581 50.9293 31.1814 50.9293 30.6014C50.9293 30.5047 50.736 30.3113 50.6393 30.2147C50.1559 30.118 49.9626 29.828 49.9626 29.3446C49.8659 28.0878 48.8992 27.1211 47.6424 27.1211C45.999 27.1211 44.3555 27.1211 42.7121 27.1211C42.0353 27.0244 41.4553 27.3144 41.0686 27.7011ZM19.6071 32.4382C19.8004 32.1481 19.9938 31.8581 20.0904 31.5681C20.4771 30.988 20.6705 30.8914 21.3472 31.0847C22.3139 31.3747 23.2807 31.5681 24.2474 31.8581C25.2141 32.0515 26.2775 32.2448 27.341 32.0515C27.2443 30.408 27.4376 28.8612 28.5977 27.7011C28.1143 27.3144 27.631 27.1211 27.0509 27.1211C25.4075 27.1211 23.8607 27.1211 22.2173 27.1211C20.7672 27.1211 19.7037 28.0878 19.6071 29.5379C19.5104 30.408 19.6071 31.4714 19.6071 32.4382ZM37.2983 45.7791C35.7516 46.1658 35.2682 46.2625 33.238 45.7791C33.5281 46.9392 32.8514 47.2292 31.8846 47.0359C31.9813 48.9693 33.5281 50.5161 35.4615 50.5161C37.395 50.4194 38.9418 48.8727 38.8451 47.1325C38.4584 47.0359 37.9751 47.0359 37.7817 46.8425C37.395 46.6492 37.395 46.1658 37.2983 45.7791ZM23.6674 47.5192C24.1507 47.0359 24.6341 46.6492 25.1175 46.2625C25.8909 45.7791 26.6642 45.6824 27.631 45.6824C27.8243 45.6824 28.0177 45.5858 28.0177 45.4891C28.1143 45.2957 28.1143 45.0057 28.211 44.619C27.341 44.7157 26.7609 44.5224 26.8576 43.4589C25.6008 43.8456 24.4407 43.8456 23.2807 43.5556C23.184 43.9423 23.0873 44.329 22.894 44.5224C22.7006 44.7157 22.2173 44.7157 21.9272 44.8124C21.8306 45.8758 22.604 47.0359 23.6674 47.5192ZM43.7755 43.5556C43.5821 44.5224 43.5821 44.5223 42.5187 44.7157C42.422 45.5858 42.5187 45.6824 43.3888 45.6824C44.4522 45.6824 45.4189 45.9725 46.1923 46.7458C46.4823 46.9392 46.6757 47.2292 46.9657 47.5192C48.1258 47.0359 48.9958 45.6824 48.8025 44.7157C47.7391 44.619 47.6424 44.7157 47.5457 43.5556C46.1923 43.9423 45.0322 43.8456 43.7755 43.5556ZM20.1871 22.2874C20.8638 22.2874 21.4439 21.7074 21.4439 21.0307C21.4439 20.354 20.8638 19.7739 20.2838 19.7739C19.6071 19.7739 19.027 20.2573 19.027 20.934C18.9304 21.7074 19.5104 22.2874 20.1871 22.2874ZM35.2682 15.5203C35.9449 15.5203 36.5249 14.9402 36.5249 14.2635C36.5249 13.5868 35.9449 13.1034 35.2682 13.0068C34.5915 13.0068 34.0114 13.5868 34.0114 14.2635C34.1081 15.0369 34.5915 15.5203 35.2682 15.5203ZM50.4459 22.2874C51.1227 22.2874 51.7027 21.7074 51.7027 21.0307C51.7027 20.354 51.2193 19.8706 50.5426 19.7739C49.8659 19.7739 49.2859 20.2573 49.2859 20.934C49.1892 21.7074 49.7692 22.2874 50.4459 22.2874ZM31.7879 45.6824C31.8846 45.1024 31.6913 44.7157 31.3046 44.7157C30.7245 44.619 30.1445 44.7157 29.4678 44.7157C29.4678 45.1024 29.3711 45.3924 29.3711 45.6824C30.2412 45.6824 31.0146 45.6824 31.7879 45.6824ZM41.0686 44.7157C40.5852 44.7157 40.1019 44.7157 39.6185 44.7157C38.9418 44.7157 38.6518 45.0057 38.8451 45.6824C39.6185 45.6824 40.3919 45.6824 41.262 45.6824C41.1653 45.2957 41.1653 45.0057 41.0686 44.7157ZM42.422 43.2656C42.422 42.3955 41.552 42.2989 41.262 41.7188C40.9719 42.2989 40.7786 42.6856 40.4886 43.2656C41.1653 43.2656 41.7453 43.2656 42.422 43.2656ZM30.0478 43.2656C29.7578 42.7822 29.5645 42.2989 29.2744 41.8155C28.9844 42.1055 28.7911 42.2989 28.501 42.4922C28.211 42.6856 27.921 42.8789 28.1143 43.2656C28.8877 43.2656 29.4678 43.2656 30.0478 43.2656ZM28.9844 38.9153C28.9844 38.1419 28.9844 37.4652 28.9844 36.6918C28.4044 36.7885 28.1143 37.1752 28.1143 37.6585C28.1143 38.2386 28.4044 38.7219 28.9844 38.9153ZM41.552 36.6918C41.552 37.4652 41.552 38.1419 41.552 38.9153C42.132 38.8186 42.422 38.3352 42.422 37.8519C42.5187 37.2718 42.132 36.8851 41.552 36.6918ZM19.317 35.3384C18.8337 35.5317 18.6403 35.9184 18.6403 36.3051C18.6403 36.6918 18.8337 36.9818 19.317 37.1752C19.317 36.5951 19.317 36.0151 19.317 35.3384ZM51.316 37.1752C51.7994 36.9818 51.9927 36.6918 51.9927 36.2084C51.9927 35.8217 51.7994 35.5317 51.316 35.3384C51.316 36.0151 51.316 36.5951 51.316 37.1752Z" fill="white"/>
</svg>
